<svg id="Layer_1" data-name="Layer 1" xmlns="http://www.w3.org/2000/svg" viewBox="0 0 511.92 277.92"><defs><style>.cls-1{fill:#3f99d4;}.cls-2{font-size:53.37px;font-family:Multicolore, Multicolore ;}.cls-2,.cls-6{fill:#fff;}.cls-3{fill:#d8deec;}.cls-4{fill:#c8d0e2;}.cls-5{fill:#aaa;}.cls-7{fill:#969cb3;}.cls-8{fill:#b3b3b3;}.cls-9{fill:#d3d3d3;}.cls-10{fill:#717588;}</style></defs><title>Artboard 1</title><rect class="cls-1" x="-0.04" y="0.11" width="512" height="277.7" rx="12" ry="12"/><text class="cls-2" transform="translate(24.8 50.39)">ANNOUNCEMENT</text><path class="cls-3" d="M275,172l-13.37,2.68V135.22L275,137.9a7.88,7.88,0,0,1,6.34,7.73v18.62A7.88,7.88,0,0,1,275,172Z"/><path class="cls-4" d="M275,160.15l-13.37,2.68v11.83L275,172a7.88,7.88,0,0,0,6.34-7.73V152.42A7.88,7.88,0,0,1,275,160.15Z"/><path class="cls-5" d="M64.44,182.54H60.49a7.88,7.88,0,0,1-7.88-7.88V135.22a7.88,7.88,0,0,1,7.88-7.88h3.95Z"/><path class="cls-6" d="M155.13,111.56v86.75c27.6,0,71,11.83,102.52,39.44V72.13C226.11,99.73,182.73,111.56,155.13,111.56Z"/><path class="cls-7" d="M265.54,241.69H261.6a4,4,0,0,1-4-3.94V72.13a3.94,3.94,0,0,1,4-3.94h3.94a3.93,3.93,0,0,1,3.94,3.94V237.75A3.94,3.94,0,0,1,265.54,241.69Z"/><path class="cls-8" d="M160.73,255.72h0c-1.88,0-3.5-.84-3.87-2l-17.5-55.4H96l17.82,56.38c1.1,3.5,6,6,11.6,6h35.33c2.18,0,3.94-1.12,3.94-2.5S162.91,255.72,160.73,255.72Z"/><path class="cls-5" d="M147.24,198.31v4.55a3.94,3.94,0,0,1-3.29,3.89L80.86,217.27a3.94,3.94,0,0,1-4.59-3.89V198.31Z"/><path class="cls-9" d="M155.13,198.31H76.27a15.78,15.78,0,0,1-15.78-15.77v-55.2a15.79,15.79,0,0,1,15.78-15.78h78.86v86.75Z"/><rect class="cls-7" x="147.24" y="111.56" width="7.89" height="86.75"/><path class="cls-8" d="M60.49,170.71h86.75v27.6h-71a15.78,15.78,0,0,1-15.78-15.77V170.71Z"/><rect class="cls-10" x="147.24" y="170.71" width="7.89" height="27.6"/><path class="cls-4" d="M155.13,198.31c27.6,0,71,11.83,102.52,39.44V190.43c-31.54-13.15-74.92-19.72-102.52-19.72Z"/><path class="cls-10" d="M265.54,194.37H261.6a3.94,3.94,0,0,1-4-3.94v47.32a4,4,0,0,0,4,3.94h3.94a3.94,3.94,0,0,0,3.94-3.94V190.43A3.93,3.93,0,0,1,265.54,194.37Z"/><rect class="cls-6" x="309.96" y="117.34" width="129" height="10" rx="5" ry="5" transform="matrix(0.98, -0.19, 0.19, 0.98, -16.5, 73.96)"/><rect class="cls-6" x="313.96" y="147.42" width="129" height="10" rx="5" ry="5"/><rect class="cls-6" x="309.96" y="176.38" width="129" height="10" rx="5" ry="5" transform="translate(36.95 -61.94) rotate(9.94)"/></svg>